<svg xmlns="http://www.w3.org/2000/svg" width="90" height="90" viewBox="0 0 90 90">
  <g fill="none" fill-rule="evenodd">
    <path fill="#BCBCBC" d="M45,0 C69.8528137,0 90,20.186307 90,45.0873786 C90,56.6031591 85.6911132,67.110591 78.6006144,75.079434 C75.457677,72.9492162 73.1560489,72.3259323 73.1560489,72.3259323 L67.4590018,72.3259323 C61.1675944,72.3259323 56.0660203,67.3194284 56.0660203,61.1433133 L56.0660203,57.5506084 C58.5858766,54.6094348 60.3938801,51.1320529 61.5178464,47.4563504 C61.6344488,46.836926 62.2410479,46.5307085 62.6469308,46.1052365 C64.8278837,43.9652084 65.256464,40.3528461 63.6204711,37.7814488 C63.3979476,37.3904863 62.9982954,37.0519434 63.0198802,36.5692467 C63.0198802,33.2893117 63.0363469,30.0054453 63.0147621,26.7292235 C62.9250852,22.7730763 61.774416,18.6583601 58.9474773,15.7291993 C56.6666112,13.362675 53.5348153,11.9530259 50.3031062,11.3499827 C46.2193547,10.5855309 41.9471257,10.6237535 37.9025382,11.6339219 C34.3977928,12.5016839 31.1042223,14.5169972 29.0685771,17.5038195 C27.2656916,20.0998977 26.4755106,23.2535889 26.3426641,26.3605393 C26.2921512,29.6968252 26.3313154,33.0409741 26.3199667,36.3857782 C26.3982949,37.0543459 25.8192887,37.5075566 25.5576011,38.0621118 C24.0175158,40.8060568 24.6953225,44.5435707 27.1717867,46.5392267 C27.8004156,46.9649171 27.9167954,47.740508 28.1453271,48.4095125 C29.2241211,51.7130363 31.0156579,54.7682224 33.2800572,57.4302619 L33.2800572,61.1433133 C33.2800572,67.3185548 28.1784831,72.3259323 21.8868532,72.3259323 L16.1900286,72.3259323 C16.1900286,72.3259323 14.0876676,72.8951931 11.1587795,74.8042075 C4.21110696,66.8706506 0,56.4717479 0,45.0873786 C0,20.186307 20.1471863,0 45,0 Z"/>
    <rect width="90" height="90"/>
  </g>
</svg>
