<?xml version="1.0" encoding="utf-8"?>
<!-- Generator: Adobe Illustrator 16.0.4, SVG Export Plug-In . SVG Version: 6.00 Build 0)  -->
<!DOCTYPE svg PUBLIC "-//W3C//DTD SVG 1.1//EN" "http://www.w3.org/Graphics/SVG/1.1/DTD/svg11.dtd">
<svg version="1.1" id="Layer_1" xmlns="http://www.w3.org/2000/svg" xmlns:xlink="http://www.w3.org/1999/xlink" x="0px" y="0px"
	 width="92px" height="47px" viewBox="0 0 92 47" enable-background="new 0 0 92 47" xml:space="preserve">
<path id="a_1_" fill="#880029" d="M83.148,38.768c0.601,0,1.072,0.272,1.303,0.752v-0.638h1.602v6.181
	c-0.003,0.242-0.027,0.688-0.281,1.092C85.421,46.716,84.76,47,83.807,47c-0.975,0-2.275-0.182-2.313-1.756v-0.027h1.647v0.026
	c0,0.266,0.043,0.452,0.133,0.573c0.101,0.144,0.281,0.22,0.522,0.22c0.5,0,0.574-0.591,0.574-0.943v-1.06
	c-0.244,0.412-0.69,0.648-1.233,0.648c-0.525,0-0.918-0.138-1.197-0.418c-0.543-0.543-0.541-1.529-0.539-2.4v-0.162
	C81.4,40.463,81.4,38.768,83.148,38.768L83.148,38.768z M50.559,38.882l0.004,0.021l0.817,4.029l0.869-4.05h1.627l-0.009,0.033
	l-2.26,8.05h-1.765l0.011-0.033l0.621-2.149l-1.591-5.9H50.559z M5.466,36.24c0.82,0,1.44,0.212,1.845,0.632
	c0.447,0.465,0.646,1.172,0.608,2.164l-0.001,0.024H6.156v-0.025c0-1.092-0.188-1.497-0.69-1.497c-0.976,0-1.084,0.971-1.084,3.032
	v0.232c0.01,1.901,0.145,2.799,1.084,2.799c0.724,0,0.749-0.881,0.766-1.522l0.005-0.147v-0.027h1.775v0.027
	c0,2.082-0.762,2.969-2.546,2.969c-1.304,0-2.136-0.442-2.542-1.35c-0.362-0.81-0.362-1.863-0.362-2.98v-0.172
	C2.564,38.236,2.636,36.239,5.466,36.24L5.466,36.24z M60.036,36.24c0.819,0,1.44,0.213,1.845,0.633
	c0.447,0.464,0.646,1.171,0.607,2.163v0.024h-1.762v-0.025c0-1.092-0.188-1.497-0.69-1.497c-0.978,0-1.084,0.971-1.084,3.032v0.232
	c0.01,1.9,0.146,2.799,1.084,2.799c0.724,0,0.749-0.881,0.766-1.521l0.005-0.15v-0.025h1.774v0.027c0,2.08-0.763,2.969-2.545,2.969
	c-1.304,0-2.136-0.441-2.542-1.351c-0.362-0.808-0.362-1.862-0.362-2.979v-0.342C57.139,38.133,57.281,36.24,60.036,36.24
	L60.036,36.24z M33.135,38.882v4.065c0,0.539,0.098,0.873,0.586,0.873c0.489,0,0.586-0.334,0.586-0.873v-4.065h1.683v4.7
	c0,0.348,0.018,0.725,0.058,1.15l0.002,0.028h-1.743v-0.56c-0.166,0.248-0.35,0.416-0.563,0.512
	c-0.224,0.112-0.48,0.164-0.809,0.164c-0.714,0-1.482-0.404-1.482-1.296v-4.7L33.135,38.882L33.135,38.882z M11.255,38.766
	c2.222,0,2.407,1.474,2.407,2.98c0,1.65-0.183,3.13-2.406,3.13c-2.224,0-2.407-1.479-2.407-3.13
	C8.849,40.239,9.034,38.766,11.255,38.766L11.255,38.766z M89.586,38.766c0.816,0,1.402,0.195,1.79,0.594
	c0.597,0.615,0.649,1.673,0.617,2.723v0.025h-3.12c0,0.602,0.01,1.679,0.713,1.679c0.443,0,0.667-0.341,0.667-1.013v-0.025h1.706
	v0.027c-0.023,0.646-0.243,1.174-0.634,1.529c-0.399,0.375-1,0.572-1.739,0.572c-2.223,0-2.406-1.48-2.406-3.13
	c0-1.508,0.184-2.979,2.406-2.979V38.766z M78.029,38.766c0.816,0,1.402,0.195,1.789,0.594c0.598,0.615,0.65,1.673,0.617,2.723
	v0.025h-3.119c0,0.601,0.01,1.679,0.713,1.679c0.443,0,0.666-0.341,0.666-1.013v-0.025h1.707v0.027
	c-0.024,0.654-0.237,1.17-0.633,1.529c-0.399,0.375-1,0.572-1.74,0.572c-2.223,0-2.407-1.48-2.407-3.13V41.6
	C75.637,40.145,75.88,38.766,78.029,38.766L78.029,38.766z M65.826,38.766c2.22,0,2.406,1.474,2.406,2.98
	c0,1.65-0.185,3.13-2.406,3.13c-2.225,0-2.407-1.479-2.407-3.13C63.419,40.239,63.605,38.766,65.826,38.766z M47.904,37.218v1.664
	h0.844v1.058h-0.844v3.234c0.003,0.153,0.013,0.284,0.062,0.377c0.065,0.123,0.199,0.178,0.433,0.178c0.1,0,0.205,0,0.281-0.022
	l0.033-0.011v1.063l-0.023,0.002l-0.106,0.013c-0.19,0.021-0.408,0.045-0.74,0.045c-1.543,0-1.62-1.098-1.62-1.317v-3.562h-0.66
	v-1.058h0.66v-0.914L47.904,37.218z M40.286,38.768c0.714,0,1.482,0.404,1.482,1.295v4.699h-1.682v-4.041
	c0-0.539-0.1-0.897-0.587-0.897c-0.486,0-0.586,0.358-0.586,0.897v4.04h-1.682v-5.88h1.682v0.561
	c0.152-0.233,0.341-0.405,0.564-0.51C39.697,38.82,39.962,38.768,40.286,38.768z M71.156,36.378v8.384h-1.682v-8.384H71.156z
	 M20.512,38.768c0.714,0,1.483,0.404,1.483,1.295v4.699h-1.682v-4.041c0-0.539-0.1-0.897-0.586-0.897
	c-0.487,0-0.587,0.358-0.587,0.897v4.04h-1.647v-4.04c0-0.539-0.1-0.897-0.586-0.897c-0.487,0-0.587,0.358-0.587,0.897v4.04h-1.682
	v-5.88h1.682v0.562c0.307-0.467,0.733-0.676,1.373-0.676c0.564,0,1.027,0.254,1.308,0.717
	C19.386,38.988,19.854,38.768,20.512,38.768z M74.369,36.378v8.384h-1.682v-8.384H74.369z M28.856,38.768
	c0.714,0,1.483,0.404,1.483,1.295v4.699h-1.683v-4.041c0-0.539-0.099-0.897-0.586-0.897c-0.486,0-0.586,0.358-0.586,0.897v4.04
	h-1.647v-4.04c0-0.539-0.1-0.897-0.587-0.897c-0.486,0-0.586,0.358-0.586,0.897v4.04h-1.682v-5.88h1.682v0.562
	c0.307-0.467,0.732-0.676,1.373-0.676c0.564,0,1.027,0.254,1.308,0.717C27.73,38.988,28.197,38.768,28.856,38.768L28.856,38.768z
	 M44.831,38.882v5.88h-1.683v-5.88H44.831z M11.256,39.857c-0.657,0-0.725,0.547-0.725,1.797c0,1.838,0.172,2.131,0.725,2.131
	c0.552,0,0.724-0.293,0.724-2.131C11.98,40.404,11.912,39.857,11.256,39.857z M65.826,39.857c-0.657,0-0.725,0.547-0.725,1.797
	c0,1.838,0.172,2.131,0.725,2.131c0.552,0,0.725-0.293,0.725-2.131C66.551,40.404,66.482,39.857,65.826,39.857z M83.738,39.823
	c-0.574,0-0.69,0.366-0.69,2.178l-0.001,0.14c-0.005,0.414-0.012,1.041,0.271,1.326c0.109,0.106,0.256,0.163,0.408,0.157
	c0.551,0,0.644-0.562,0.644-1.819C84.37,40.57,84.328,39.823,83.738,39.823z M89.586,39.823c-0.312,0-0.518,0.153-0.623,0.47
	c-0.09,0.27-0.09,0.605-0.09,0.85h1.438v-0.153c-0.002-0.363-0.026-0.772-0.25-0.995C89.945,39.879,89.79,39.824,89.586,39.823
	L89.586,39.823z M78.029,39.823c-0.312,0-0.516,0.153-0.622,0.47c-0.091,0.27-0.091,0.605-0.091,0.85h1.438v-0.02
	c0-0.391,0.001-0.877-0.251-1.13C78.389,39.879,78.232,39.823,78.029,39.823z M44.831,36.378v1.333h-1.683v-1.333H44.831z
	 M89.523,33.297v0.42H5.036v-0.42H89.523z M38.241,0c1.251,0,2.257,0.477,3.143,1.188c1.087,0.872,4.707,4.644,4.707,4.644
	c1.308,1.295,1.888,3.404,1.882,4.92v0.263l-0.002,0.168v0.022v0.016c-0.064,2.095-1.088,3.919-2.9,5.158l1.727,1.732
	c1.58,1.584,2.066,2.83,2.085,5.335c0.014,1.877-0.708,3.686-1.98,4.964c-1.107,1.113-2.556,1.725-4.079,1.725h-0.008l-7.088-0.009
	l-0.008-0.007l-4.315-4.273h-0.013v4.289H24.3l-0.008-0.008l-4.34-4.342h-0.008v-0.008l-0.004-0.004v-3.35l-8.178-0.012l-6.25,7.723
	H4.37l-0.008-0.008L0,25.766l0.015-0.02l20.083-25.72h0.936l4.894,5.02V0H38.241z M75.338,14.398c1.191,0,2.21,0.252,3.055,0.757
	c0.846,0.505,1.406,1.14,1.687,1.909c0.278,0.768,0.418,1.856,0.418,3.264h-4.31V18.6c0-0.602-0.051-1.01-0.147-1.226
	c-0.099-0.214-0.28-0.321-0.544-0.321s-0.439,0.094-0.531,0.282c-0.09,0.188-0.136,0.61-0.136,1.265v7.071
	c0,0.535,0.067,0.937,0.204,1.203c0.136,0.269,0.335,0.401,0.6,0.401c0.309,0,0.518-0.141,0.627-0.418
	c0.11-0.278,0.164-0.807,0.164-1.582V23.49h4.073c-0.009,1.197-0.052,2.095-0.13,2.693c-0.08,0.6-0.332,1.213-0.758,1.842
	c-0.415,0.619-0.992,1.111-1.67,1.424c-0.686,0.32-1.535,0.48-2.545,0.48c-1.289,0-2.312-0.221-3.065-0.662
	c-0.731-0.414-1.298-1.068-1.601-1.853c-0.313-0.794-0.471-1.922-0.471-3.383v-4.258c0-1.273,0.129-2.233,0.385-2.88
	c0.258-0.648,0.803-1.226,1.641-1.734C73.12,14.651,74.139,14.397,75.338,14.398L75.338,14.398z M63.893,14.398
	c1.281,0,2.34,0.243,3.172,0.728c0.834,0.486,1.418,1.13,1.754,1.932c0.336,0.802,0.504,1.93,0.504,3.383v1.988h-5.918v3.242
	c0,0.679,0.05,1.115,0.147,1.31c0.099,0.196,0.287,0.295,0.566,0.295c0.347,0,0.579-0.131,0.696-0.391s0.174-0.762,0.174-1.508
	v-1.976h4.334v1.107c0,0.926-0.059,1.637-0.176,2.135s-0.39,1.028-0.819,1.592c-0.431,0.565-0.976,0.99-1.636,1.271
	c-0.659,0.284-1.487,0.425-2.482,0.425c-0.966,0-1.818-0.14-2.557-0.418c-0.74-0.279-1.315-0.66-1.726-1.146
	c-0.4-0.465-0.692-1.013-0.854-1.604c-0.158-0.583-0.238-1.432-0.238-2.547v-4.371c0-1.31,0.178-2.344,0.532-3.1
	c0.354-0.758,0.935-1.337,1.743-1.74C61.915,14.599,62.843,14.398,63.893,14.398z M86.004,11.371v4.111
	c0.371-0.347,0.803-0.623,1.273-0.813c0.455-0.18,0.943-0.271,1.465-0.271c0.8,0,1.48,0.203,2.042,0.61
	c0.562,0.407,0.905,0.876,1.03,1.406c0.123,0.531,0.186,1.5,0.186,2.909v10.335h-4.57v-10.55c0-0.873-0.044-1.434-0.13-1.683
	c-0.087-0.248-0.28-0.373-0.583-0.373c-0.279,0-0.468,0.129-0.566,0.384c-0.098,0.257-0.146,0.765-0.146,1.525v10.697h-4.57V11.371
	H86.004z M59.947,11.371v3.66h-2.828v14.627h-4.764V15.031h-2.816v-3.66H59.947z M20.832,0.24h-0.601L0.454,25.575h0.935l6.09-7.672
	h12.675v7.672h6.741V0.89h10.952c1.25,0,2.388,0.506,3.29,1.462c1.085,1.153,1.673,2.833,1.572,4.495
	c-0.185,3.002-2.376,5.265-5.097,5.265H31.47v0.65h6.193c3.24,0,5.846,2.59,5.933,5.897c0.037,1.662-0.596,3.269-1.756,4.46
	c-1.127,1.17-2.683,1.832-4.308,1.832H31.47v0.624h6.611c1.552,0,3.029-0.624,4.157-1.758c1.306-1.31,2.048-3.17,2.036-5.103
	c-0.018-2.958-1.477-5.126-4.221-6.27l-0.203-0.086l0.193-0.104c2.187-1.185,3.29-2.966,3.369-5.443
	c0.06-1.918-0.63-3.814-1.85-5.071c-0.952-0.982-2.147-1.5-3.455-1.5H26.139v24.684h-5.307V0.24z M31.45,12.974h-0.056V24.74h6.14
	c1.568,0,3.07-0.639,4.158-1.768c0.125-0.128,1.748-1.845,1.696-4.309c-0.005-0.207-0.021-0.413-0.048-0.617
	c-0.09-0.15-0.207-0.283-0.345-0.392c-0.21-0.166-0.412-0.228-0.605-0.285c-0.254-0.075-0.519-0.11-0.784-0.105l-5.852,0.007
	L31.45,12.974z M64.107,17.052c-0.316,0-0.512,0.097-0.588,0.288c-0.076,0.192-0.113,0.71-0.113,1.554v1.095h1.335v-1.095
	c0-0.776-0.042-1.277-0.124-1.503C64.534,17.166,64.364,17.052,64.107,17.052L64.107,17.052z M20.154,1.785v15.468H8.072
	L20.154,1.785z M19.94,12.145l-3.837,4.897h3.837V12.145z M31.394,5.302l0.01,3.325c0.004,2.326,0.002,3.047-0.008,3.275h6.216
	c2.608,0,4.709-2.179,4.886-5.068c0.023-0.386,0.009-0.773-0.043-1.156c-0.052-0.056-0.113-0.102-0.18-0.137
	c-0.288-0.141-0.602-0.219-0.922-0.23L41.315,5.31L31.394,5.302z"/>
</svg>
